<?xml version="1.0" standalone="no"?>
<!DOCTYPE svg PUBLIC "-//W3C//DTD SVG 20010904//EN"
 "http://www.w3.org/TR/2001/REC-SVG-20010904/DTD/svg10.dtd">
<svg version="1.0" xmlns="http://www.w3.org/2000/svg"
 width="561.000000pt" height="445.000000pt" viewBox="0 0 561.000000 445.000000"
 preserveAspectRatio="xMidYMid meet">

<g transform="translate(0.000000,445.000000) scale(0.100000,-0.100000)"
fill="#000000" stroke="none">
<path d="M2516 3609 c-61 -8 -152 -28 -269 -60 -39 -10 -117 -72 -117 -93 0
-6 17 -35 39 -63 73 -98 96 -170 122 -379 l12 -101 73 -6 c110 -10 274 15 274
41 0 5 23 21 50 36 42 23 63 27 125 28 78 0 103 -9 182 -65 49 -34 181 -53
283 -40 l65 8 6 95 c12 168 53 295 123 379 49 59 46 86 -15 127 -81 54 -437
125 -474 94 -23 -19 -18 -54 11 -81 80 -74 102 -208 52 -305 -45 -85 -115
-133 -207 -141 -108 -10 -197 36 -251 129 -26 46 -30 63 -30 126 0 80 11 111
66 178 36 43 42 72 22 92 -13 13 -41 14 -142 1z"/>
<path d="M2728 3491 c-101 -64 -115 -199 -29 -284 38 -39 44 -42 110 -45 50
-3 78 0 104 13 51 24 89 84 95 149 12 152 -151 249 -280 167z"/>
<path d="M1980 2931 c-105 -26 -158 -162 -104 -265 23 -45 107 -96 158 -96 40
1 113 34 141 65 36 38 95 49 255 50 167 0 203 -8 278 -64 90 -68 176 -62 267
18 44 39 141 55 289 49 126 -6 171 -19 238 -70 68 -52 124 -59 194 -25 74 37
108 95 102 177 -11 156 -186 224 -309 120 -40 -34 -56 -40 -129 -51 -90 -13
-278 -7 -341 11 -19 5 -48 23 -64 40 -61 63 -182 65 -254 4 -22 -20 -55 -40
-73 -45 -57 -17 -238 -22 -333 -10 -82 11 -93 15 -126 47 -50 48 -115 64 -189
45z"/>
<path d="M2291 2503 c-25 -217 -55 -305 -138 -404 -25 -29 -26 -33 -12 -58 30
-55 199 -113 387 -131 87 -9 116 -9 128 0 23 20 16 49 -20 92 -53 62 -66 97
-66 180 0 65 4 79 29 119 46 68 52 74 111 105 79 41 155 40 236 -2 92 -48 153
-156 140 -250 -7 -54 -57 -155 -85 -172 -24 -14 -28 -54 -6 -72 26 -22 239 5
366 47 111 36 159 67 159 102 0 10 -17 41 -38 68 -70 88 -110 214 -121 383
l-6 95 -125 3 c-137 3 -184 -5 -229 -43 -101 -86 -259 -85 -352 1 -38 36 -79
44 -220 44 l-125 0 -13 -107z"/>
<path d="M2726 2329 c-50 -34 -69 -63 -80 -121 -20 -113 70 -218 188 -218 87
0 176 92 176 182 0 152 -159 239 -284 157z"/>
<path d="M630 1469 l0 -150 33 3 32 3 5 78 5 79 21 -24 c11 -12 28 -36 38 -53
34 -55 68 -85 98 -85 l28 0 0 151 0 150 -32 -3 -33 -3 -5 -85 -5 -85 -49 75
c-58 88 -70 100 -108 100 l-28 0 0 -151z"/>
<path d="M1000 1470 l0 -150 115 0 115 0 0 30 0 29 -77 3 c-76 3 -78 4 -78 28
0 24 3 25 73 28 l72 3 0 29 0 29 -72 3 c-67 3 -73 5 -76 25 -3 21 1 22 75 25
l78 3 3 33 3 32 -115 0 -116 0 0 -150z"/>
<path d="M1320 1616 c0 -2 20 -34 45 -70 25 -37 45 -71 45 -75 0 -4 -20 -38
-45 -75 -25 -38 -45 -71 -45 -72 0 -2 16 -4 35 -4 31 0 39 6 67 50 18 27 35
49 38 49 3 0 19 -21 36 -47 26 -40 36 -47 67 -50 20 -2 37 0 37 5 0 4 -20 37
-44 73 -50 72 -50 72 15 167 16 23 29 44 29 47 0 3 -15 6 -34 6 -27 0 -39 -7
-55 -29 -12 -16 -21 -33 -21 -39 0 -5 -6 -15 -14 -21 -11 -9 -21 -2 -50 39
-31 44 -40 50 -71 50 -19 0 -35 -2 -35 -4z"/>
<path d="M1680 1585 c0 -34 1 -35 40 -35 l39 0 3 -112 3 -113 32 -3 32 -3 3
113 3 113 43 3 c41 3 42 4 42 38 l0 34 -120 0 -120 0 0 -35z"/>
<path d="M2006 1578 c4 -24 19 -90 33 -148 l26 -105 50 0 c42 0 50 3 53 20 10
65 34 165 41 165 6 0 27 -74 46 -163 5 -27 8 -28 53 -25 l47 3 26 105 c14 58
29 124 33 148 l6 42 -39 0 c-42 0 -51 -13 -51 -77 0 -35 -20 -137 -25 -131 -3
3 -35 121 -49 181 -6 24 -11 27 -45 27 -42 0 -36 11 -81 -158 -6 -23 -15 -40
-20 -37 -4 3 -11 40 -15 83 -10 111 -10 112 -56 112 l-39 0 6 -42z"/>
<path d="M2597 1593 c-8 -16 -22 -53 -32 -83 -10 -30 -31 -84 -47 -118 -15
-35 -28 -66 -28 -68 0 -2 17 -4 38 -4 34 0 39 3 51 35 l13 36 66 -3 c65 -3 66
-3 76 -35 8 -30 13 -33 47 -33 22 0 39 1 39 3 0 3 -27 73 -76 200 l-38 97 -48
0 c-42 0 -49 -3 -61 -27z m79 -88 c20 -49 18 -55 -21 -55 -19 0 -35 2 -35 5 0
10 32 85 37 85 2 0 11 -16 19 -35z"/>
<path d="M2895 1598 c4 -13 20 -54 36 -92 16 -37 29 -72 29 -78 0 -5 10 -32
21 -59 l22 -50 45 3 45 3 22 60 c12 33 36 93 53 134 42 95 41 103 -4 99 -36
-3 -36 -4 -73 -100 -20 -53 -39 -100 -42 -103 -4 -3 -21 36 -39 87 -18 51 -37
99 -43 106 -5 6 -25 12 -44 12 -31 0 -34 -2 -28 -22z"/>
<path d="M3294 1607 c-2 -7 -3 -74 -2 -148 l3 -134 113 -3 112 -3 0 30 0 30
-77 3 c-76 3 -78 4 -78 28 0 24 3 25 73 28 l72 3 0 29 0 30 -75 0 c-73 0 -75
1 -75 25 0 25 1 25 80 25 l80 0 0 35 0 35 -110 0 c-82 0 -112 -3 -116 -13z"/>
<path d="M3752 1588 c3 -30 6 -33 41 -36 42 -4 41 -1 38 -122 -2 -98 3 -112
42 -108 l32 3 3 112 3 112 37 3 c34 3 37 6 40 36 l3 32 -121 0 -121 0 3 -32z"/>
<path d="M4084 1607 c-2 -7 -3 -74 -2 -148 l3 -134 113 -3 c107 -3 112 -2 112
18 0 11 0 23 0 28 0 4 -35 9 -77 12 -75 5 -78 6 -78 30 0 24 3 25 73 28 l72 3
0 29 0 29 -72 3 c-67 3 -73 5 -76 25 -3 21 1 22 74 25 75 3 78 4 85 30 4 15 4
29 1 32 -3 3 -54 6 -114 6 -80 0 -110 -3 -114 -13z"/>
<path d="M4507 1608 c-57 -15 -97 -74 -97 -144 0 -48 4 -59 35 -93 45 -50 110
-69 170 -49 35 11 40 17 43 47 3 29 1 33 -15 26 -62 -27 -127 -16 -148 25 -22
42 -19 77 10 106 22 22 33 25 73 22 26 -3 55 -8 65 -12 14 -7 17 -3 17 27 0
33 -3 37 -37 46 -45 13 -65 12 -116 -1z"/>
<path d="M4767 1614 c-4 -4 -7 -72 -7 -151 l0 -144 33 3 c32 3 32 4 35 61 l3
57 59 0 60 0 0 -60 0 -60 35 0 35 0 0 151 0 150 -32 -3 c-33 -3 -33 -4 -36
-60 l-3 -58 -59 0 -59 0 -3 58 c-3 53 -5 57 -28 60 -14 2 -29 0 -33 -4z"/>
<path d="M129 1033 c-13 -16 -12 -17 3 -5 9 7 29 12 45 10 22 -2 31 -11 40
-38 8 -22 12 -28 12 -15 2 54 -69 88 -100 48z"/>
<path d="M391 988 c1 -43 3 -55 8 -38 5 17 16 27 36 31 l30 7 -32 1 c-28 1
-33 5 -33 25 0 21 5 25 38 29 l37 4 -42 1 -43 2 1 -62z"/>
<path d="M734 1041 c18 -7 66 -3 66 5 0 2 -19 4 -42 3 -31 0 -37 -3 -24 -8z"/>
<path d="M872 1012 c-3 -57 12 -82 46 -82 40 0 52 17 50 74 -1 39 -2 42 -5 16
-7 -68 -12 -80 -37 -80 -32 0 -44 17 -49 70 l-4 45 -1 -43z"/>
<path d="M1085 1043 c17 -3 36 -10 44 -16 11 -10 13 -9 9 3 -3 10 -19 15 -44
16 -29 1 -32 1 -9 -3z"/>
<path d="M1240 1040 c-10 -6 -4 -8 21 -4 30 5 39 2 53 -17 9 -13 16 -19 16
-13 0 32 -58 54 -90 34z"/>
<path d="M1514 1034 c-10 -8 -13 -12 -5 -8 8 4 28 11 45 15 29 6 29 7 5 8 -14
1 -34 -6 -45 -15z"/>
<path d="M1679 1033 c-13 -15 -12 -15 8 -2 18 11 29 11 55 2 30 -11 31 -11 14
2 -26 20 -60 19 -77 -2z"/>
<path d="M1860 1038 c0 -9 7 -22 17 -29 15 -13 15 -12 3 11 -17 34 -20 36 -20
18z"/>
<path d="M1969 1029 c-7 -13 -7 -19 -1 -15 7 4 12 -10 15 -36 3 -38 4 -36 5
15 2 62 -1 68 -19 36z"/>
<path d="M2082 988 c3 -63 3 -63 36 -66 18 -2 32 1 32 7 0 6 -13 11 -30 11
-23 0 -30 4 -30 20 0 16 7 20 33 21 l32 1 -30 7 c-21 4 -31 13 -33 28 -3 19 2
22 35 26 l38 4 -43 1 -43 2 3 -62z"/>
<path d="M2246 1028 c-9 -12 -16 -32 -15 -43 0 -13 4 -8 12 15 9 27 19 36 42
41 30 7 30 7 3 8 -17 1 -32 -7 -42 -21z"/>
<path d="M2435 1040 c-3 -5 1 -10 10 -10 9 0 13 5 10 10 -3 6 -8 10 -10 10 -2
0 -7 -4 -10 -10z"/>
<path d="M2666 1028 c-9 -12 -16 -32 -16 -44 0 -35 54 -71 81 -53 10 6 5 9
-16 9 -36 0 -55 16 -55 45 0 31 14 46 51 55 l34 8 -32 1 c-22 1 -37 -6 -47
-21z"/>
<path d="M2837 1032 c-37 -40 -9 -102 46 -102 34 0 57 24 57 60 0 52 -69 79
-103 42z m74 -2 c22 -12 26 -59 7 -78 -15 -15 -61 -15 -76 0 -17 17 -15 54 4
72 18 19 38 20 65 6z"/>
<path d="M3020 988 c0 -34 2 -59 4 -57 8 10 14 119 5 119 -5 0 -9 -28 -9 -62z"/>
<path d="M3137 1043 c-2 -5 -1 -33 3 -63 l7 -55 2 63 c1 58 -2 73 -12 55z"/>
<path d="M3360 1040 c0 -5 5 -10 11 -10 5 0 7 5 4 10 -3 6 -8 10 -11 10 -2 0
-4 -4 -4 -10z"/>
<path d="M3581 988 c1 -35 4 -53 6 -41 2 13 13 24 26 26 l22 4 -22 2 c-19 1
-23 7 -23 32 0 30 2 31 34 27 19 -2 32 0 30 4 -3 4 -21 8 -40 8 l-34 0 1 -62z"/>
<path d="M3740 1042 c0 -5 14 -7 30 -4 17 2 37 -1 45 -8 13 -11 14 -10 9 4 -4
11 -18 16 -45 16 -21 0 -39 -4 -39 -8z"/>
<path d="M3920 1036 c-10 -13 -7 -13 18 -4 38 15 60 5 68 -28 10 -39 -7 -59
-49 -59 -19 0 -33 -3 -30 -7 9 -15 60 -8 76 10 21 23 22 51 1 80 -18 25 -65
30 -84 8z"/>
<path d="M4352 988 c1 -57 2 -59 5 -15 2 26 8 45 13 42 4 -3 6 4 3 15 -11 42
-23 18 -21 -42z"/>
<path d="M4468 1038 c-2 -7 -1 -29 3 -48 6 -34 6 -33 8 13 1 46 -3 59 -11 35z"/>
<path d="M4607 1043 c-4 -3 -7 -11 -7 -17 0 -6 5 -5 12 2 6 6 9 14 7 17 -3 3
-9 2 -12 -2z"/>
<path d="M4839 1033 c-13 -15 -12 -15 9 -4 13 7 36 10 50 7 20 -5 23 -4 12 4
-23 15 -56 12 -71 -7z"/>
<path d="M5192 988 c3 -55 6 -63 23 -64 45 -1 103 51 81 73 -3 4 -6 -1 -6 -10
0 -25 -29 -47 -61 -47 -28 0 -29 1 -29 50 0 48 1 50 27 50 14 0 35 -7 45 -17
10 -9 18 -11 18 -5 0 16 -34 32 -70 32 l-31 0 3 -62z"/>
<path d="M5410 1040 c0 -5 5 -10 11 -10 5 0 7 5 4 10 -3 6 -8 10 -11 10 -2 0
-4 -4 -4 -10z"/>
<path d="M552 998 c-2 -37 2 -50 19 -61 43 -31 80 6 78 76 -1 28 -2 26 -8 -11
-9 -51 -21 -65 -52 -60 -21 3 -25 10 -30 53 l-6 50 -1 -47z"/>
<path d="M5010 1030 c0 -5 7 -10 16 -10 8 0 12 5 9 10 -3 6 -10 10 -16 10 -5
0 -9 -4 -9 -10z"/>
<path d="M5102 1002 c-1 -29 -6 -41 -13 -36 -6 4 -5 -4 2 -17 l14 -24 3 27 c2
15 1 42 -1 60 -3 28 -4 27 -5 -10z"/>
<path d="M753 985 c0 -22 2 -30 4 -17 2 12 2 30 0 40 -3 9 -5 -1 -4 -23z"/>
<path d="M2465 998 c4 -13 11 -27 16 -33 5 -5 4 5 -2 23 -12 36 -24 44 -14 10z"/>
<path d="M1491 989 c-1 -35 30 -62 66 -56 l28 4 -31 2 c-35 1 -50 14 -57 51
l-4 25 -2 -26z"/>
<path d="M1662 990 c0 -14 2 -19 5 -12 2 6 2 18 0 25 -3 6 -5 1 -5 -13z"/>
<path d="M3820 1002 c0 -7 -16 -12 -40 -12 -22 0 -40 -4 -40 -8 0 -4 16 -7 35
-7 36 2 64 19 52 32 -4 3 -7 1 -7 -5z"/>
<path d="M4127 994 c6 -15 23 -19 23 -5 0 5 -7 11 -14 14 -10 4 -13 1 -9 -9z"/>
<path d="M4263 975 c0 -22 2 -30 4 -17 2 12 2 30 0 40 -3 9 -5 -1 -4 -23z"/>
<path d="M4821 989 c-2 -51 68 -79 102 -41 10 10 17 23 17 28 0 4 -7 -2 -16
-14 -9 -14 -26 -22 -43 -22 -32 0 -47 14 -54 50 l-4 25 -2 -26z"/>
<path d="M5040 1006 c0 -2 8 -10 18 -17 15 -13 16 -12 3 4 -13 16 -21 21 -21
13z"/>
<path d="M1098 993 c-21 -2 -38 -8 -38 -12 0 -12 59 -6 72 7 7 7 10 11 8 10
-3 -1 -22 -3 -42 -5z"/>
<path d="M3383 985 c0 -8 4 -15 8 -15 4 0 11 -9 14 -21 4 -11 9 -18 12 -16 4
5 -24 67 -31 67 -1 0 -3 -7 -3 -15z"/>
<path d="M4628 988 c-2 -7 7 -24 20 -38 l25 -25 -18 35 c-22 44 -22 43 -27 28z"/>
<path d="M5381 974 c-14 -32 -11 -36 10 -14 9 10 13 23 10 29 -5 7 -12 2 -20
-15z"/>
<path d="M5441 990 c0 -8 6 -24 14 -34 19 -25 19 -9 0 24 -8 14 -14 19 -14 10z"/>
<path d="M1315 968 c-12 -27 -58 -36 -83 -16 -15 12 -16 11 -3 -4 7 -10 26
-18 41 -18 28 0 65 31 58 50 -2 6 -8 0 -13 -12z"/>
<path d="M2410 980 c0 -5 5 -10 11 -10 5 0 7 5 4 10 -3 6 -8 10 -11 10 -2 0
-4 -4 -4 -10z"/>
<path d="M4575 979 c-9 -14 -2 -20 14 -10 8 6 9 11 3 15 -6 3 -14 1 -17 -5z"/>
<path d="M3100 960 c-6 -11 -16 -17 -22 -14 -7 4 -8 3 -4 -4 11 -18 22 -14 34
13 14 30 7 34 -8 5z"/>
<path d="M3325 969 c-11 -16 -1 -19 13 -3 7 8 8 14 3 14 -5 0 -13 -5 -16 -11z"/>
<path d="M129 948 c7 -10 26 -18 41 -18 15 0 34 8 41 18 11 14 11 15 -1 5 -8
-7 -26 -13 -40 -13 -14 0 -32 6 -40 13 -12 10 -12 9 -1 -5z"/>
<path d="M1679 948 c7 -10 26 -18 41 -18 15 0 34 8 41 18 11 14 11 15 -1 5 -8
-7 -26 -13 -40 -13 -14 0 -32 6 -40 13 -12 10 -12 9 -1 -5z"/>
<path d="M2240 957 c0 -3 11 -13 24 -22 17 -11 29 -13 47 -6 22 9 21 10 -11
10 -20 1 -41 6 -48 13 -7 7 -12 9 -12 5z"/>
<path d="M4406 938 c3 -4 9 -8 15 -8 5 0 9 4 9 8 0 5 -7 9 -15 9 -8 0 -12 -4
-9 -9z"/>
</g>
</svg>
