<?xml version="1.0" standalone="no"?>
<!DOCTYPE svg PUBLIC "-//W3C//DTD SVG 20010904//EN"
 "http://www.w3.org/TR/2001/REC-SVG-20010904/DTD/svg10.dtd">
<svg version="1.0" xmlns="http://www.w3.org/2000/svg"
 width="457.000000pt" height="378.000000pt" viewBox="0 0 457.000000 378.000000"
 preserveAspectRatio="xMidYMid meet">

<g transform="translate(0.000000,378.000000) scale(0.100000,-0.100000)"
fill="#000000" stroke="none">
<path d="M1780 3243 c-303 -29 -536 -85 -635 -153 -81 -55 -84 -84 -17 -172
123 -162 163 -289 192 -603 7 -66 14 -122 17 -125 11 -11 317 -11 383 0 58 10
81 20 134 59 99 73 155 94 256 95 105 1 168 -19 249 -80 96 -72 114 -77 306
-82 94 -2 186 0 205 5 l35 9 11 130 c28 307 72 441 196 597 24 31 38 59 38 77
0 92 -186 173 -505 221 -71 10 -162 19 -202 19 -61 0 -74 -3 -83 -19 -21 -40
-11 -69 45 -131 141 -159 135 -389 -14 -533 -196 -191 -513 -134 -630 113 -23
48 -26 68 -26 160 0 92 3 112 26 161 15 31 50 82 78 113 55 60 61 82 34 114
-21 24 -44 30 -93 25z"/>
<path d="M2061 3099 c-158 -30 -254 -195 -207 -353 28 -93 110 -165 213 -186
129 -27 269 53 311 179 19 54 14 150 -9 201 -53 117 -180 183 -308 159z"/>
<path d="M865 2228 c-84 -22 -173 -107 -195 -186 -53 -191 104 -383 293 -358
59 8 132 44 167 81 58 62 166 87 390 87 226 1 322 -19 396 -83 131 -113 266
-116 391 -9 59 51 89 64 197 82 98 17 338 13 444 -7 85 -16 98 -21 145 -62 70
-60 116 -82 184 -89 110 -11 219 51 269 153 90 183 -43 398 -246 397 -79 0
-134 -23 -207 -86 -40 -36 -64 -47 -111 -57 -113 -22 -267 -30 -384 -21 -160
13 -217 30 -285 86 -65 53 -98 69 -165 79 -81 12 -146 -14 -258 -105 -100 -81
-615 -85 -723 -6 -12 9 -44 34 -71 55 -33 27 -65 42 -104 50 -64 13 -73 13
-127 -1z"/>
<path d="M1353 1734 c-19 -5 -22 -14 -28 -87 -12 -152 -44 -341 -70 -419 -30
-86 -74 -164 -134 -236 -52 -61 -53 -89 -5 -136 66 -64 278 -130 517 -161 171
-22 222 -20 241 7 25 35 20 53 -34 114 -78 89 -104 150 -108 258 -3 75 0 101
18 149 40 107 128 194 235 233 73 26 203 24 277 -5 120 -46 227 -185 243 -315
13 -105 -29 -232 -104 -311 -54 -56 -65 -79 -50 -107 17 -33 28 -38 86 -38
153 0 462 62 585 118 136 62 159 112 91 195 -55 66 -102 148 -129 223 -28 77
-60 261 -70 404 -7 97 -8 102 -33 112 -39 15 -366 4 -416 -14 -23 -8 -66 -33
-96 -56 -96 -72 -140 -87 -254 -86 -115 0 -174 21 -259 92 -27 22 -67 46 -90
52 -41 12 -371 23 -413 14z"/>
<path d="M2061 1359 c-136 -27 -234 -162 -218 -299 16 -137 133 -243 265 -243
82 -1 133 17 187 65 149 131 121 364 -55 453 -54 27 -120 36 -179 24z"/>
</g>
</svg>
